<svg width="26" height="26" viewBox="0 0 26 26" fill="none" xmlns="http://www.w3.org/2000/svg">
<path d="M9 12.25C9.69036 12.25 10.25 11.6904 10.25 11C10.25 10.3096 9.69036 9.75 9 9.75C8.30964 9.75 7.75 10.3096 7.75 11C7.75 11.6904 8.30964 12.25 9 12.25Z" fill="#04293A"/>
<path d="M13 12.25C13.6904 12.25 14.25 11.6904 14.25 11C14.25 10.3096 13.6904 9.75 13 9.75C12.3096 9.75 11.75 10.3096 11.75 11C11.75 11.6904 12.3096 12.25 13 12.25Z" fill="#04293A"/>
<path d="M17 12.25C17.6904 12.25 18.25 11.6904 18.25 11C18.25 10.3096 17.6904 9.75 17 9.75C16.3096 9.75 15.75 10.3096 15.75 11C15.75 11.6904 16.3096 12.25 17 12.25Z" fill="#04293A"/>
<path d="M21 2H5.00002C3.93952 2.00119 2.9228 2.423 2.17291 3.17289C1.42302 3.92278 1.00121 4.9395 1.00002 6V23.3159C0.99855 23.5671 1.06943 23.8135 1.2042 24.0255C1.33896 24.2376 1.53192 24.4064 1.76002 24.5117C1.93624 24.5948 2.12861 24.638 2.32342 24.6382C2.63154 24.6378 2.92965 24.5287 3.16522 24.3301L8.36182 20H21C22.0605 19.9988 23.0772 19.577 23.8271 18.8271C24.577 18.0772 24.9988 17.0605 25 16V6C24.9988 4.9395 24.577 3.92278 23.8271 3.17289C23.0772 2.423 22.0605 2.00119 21 2ZM23 16C22.9995 16.5303 22.7886 17.0387 22.4137 17.4136C22.0387 17.7886 21.5303 17.9995 21 18H8.00002C7.76612 18 7.53964 18.0821 7.36002 18.2319L3.00002 21.8647V6C3.00055 5.46973 3.21144 4.96133 3.58639 4.58637C3.96135 4.21141 4.46975 4.00053 5.00002 4H21C21.5303 4.00053 22.0387 4.21141 22.4137 4.58637C22.7886 4.96133 22.9995 5.46973 23 6V16Z" fill="#04293A"/>
</svg>
