<svg width="26" height="25" viewBox="0 0 26 25" fill="none" xmlns="http://www.w3.org/2000/svg">
<path d="M25.707 12.293L23.7077 10.2937L23.7062 10.2921L13.707 0.293005C13.6142 0.200107 13.504 0.126411 13.3826 0.0761302C13.2613 0.0258495 13.1313 -3.05176e-05 13 -3.05176e-05C12.8687 -3.05176e-05 12.7386 0.0258495 12.6173 0.0761302C12.496 0.126411 12.3858 0.200107 12.293 0.293005L2.29378 10.2921L2.29228 10.2937L0.29298 12.293C0.110822 12.4816 0.0100274 12.7342 0.0123059 12.9964C0.0145843 13.2586 0.119753 13.5094 0.305161 13.6948C0.490569 13.8802 0.741382 13.9854 1.00358 13.9877C1.26578 13.99 1.51838 13.8892 1.70698 13.707L1.99998 13.4141V23.0176C2.00059 23.5431 2.20957 24.0469 2.58111 24.4185C2.95264 24.7901 3.45639 24.9993 3.98188 25H9.01808C9.54357 24.9993 10.0473 24.7901 10.4189 24.4185C10.7904 24.0469 10.9994 23.5431 11 23.0176V17C11 16.4696 11.2107 15.9609 11.5858 15.5858C11.9608 15.2107 12.4695 15 13 15C13.5304 15 14.0391 15.2107 14.4142 15.5858C14.7893 15.9609 15 16.4696 15 17V23.0176C15.0006 23.5431 15.2096 24.0469 15.5811 24.4185C15.9526 24.7901 16.4564 24.9993 16.9819 25H22.0181C22.5436 24.9993 23.0473 24.7901 23.4189 24.4185C23.7904 24.0469 23.9994 23.5431 24 23.0176V13.4141L24.293 13.707C24.4816 13.8892 24.7342 13.99 24.9964 13.9877C25.2586 13.9854 25.5094 13.8802 25.6948 13.6948C25.8802 13.5094 25.9854 13.2586 25.9877 12.9964C25.9899 12.7342 25.8891 12.4816 25.707 12.293ZM22.0181 23L17 23.0176V17C17 15.9391 16.5786 14.9217 15.8284 14.1716C15.0783 13.4214 14.0608 13 13 13C11.9391 13 10.9217 13.4214 10.1716 14.1716C9.42141 14.9217 8.99998 15.9391 8.99998 17L9.01808 23L3.99998 23.0176V11.4141L13 2.4141L22.0006 11.4147L22.0181 23Z" fill="#011D32"/>
</svg>
