<svg width="26" height="26" viewBox="0 0 26 26" fill="none" xmlns="http://www.w3.org/2000/svg">
<path d="M25.4316 1.02829C25.2985 0.895141 25.1305 0.80228 24.9469 0.760388C24.7634 0.718496 24.5717 0.729276 24.394 0.791487L1.5581 8.78419C1.38333 8.84539 1.22898 8.95393 1.11226 9.09769C0.995539 9.24146 0.921032 9.41481 0.89704 9.59843C0.873048 9.78205 0.900513 9.96873 0.976376 10.1377C1.05224 10.3066 1.17352 10.4511 1.3267 10.5552L10.0049 16.4552L15.9043 25.1329C15.996 25.2678 16.1193 25.3783 16.2634 25.4546C16.4076 25.531 16.5683 25.5709 16.7314 25.5709C16.7749 25.5708 16.8183 25.568 16.8614 25.5626C17.045 25.5385 17.2183 25.464 17.362 25.3473C17.5057 25.2306 17.6142 25.0762 17.6754 24.9015L25.6686 2.06599C25.7308 1.88825 25.7416 1.69656 25.6996 1.51298C25.6577 1.32941 25.5648 1.16139 25.4316 1.02829ZM16.4429 22.3683L12.0167 15.8574L16.9367 10.9374C17.1203 10.7491 17.2223 10.496 17.2207 10.233C17.219 9.96995 17.1138 9.71818 16.9278 9.53219C16.7418 9.34621 16.49 9.24098 16.227 9.23932C15.964 9.23765 15.7109 9.33967 15.5226 9.52329L10.6026 14.4433L4.0917 10.0167L23.0946 3.36529L16.4429 22.3683Z" fill="white"/>
</svg>
