<svg width="26" height="26" viewBox="0 0 26 26" fill="none" xmlns="http://www.w3.org/2000/svg">
<g clip-path="url(#clip0_1_657)">
<path d="M13 8C12.0111 8 11.0444 8.29325 10.2222 8.84265C9.39991 9.39206 8.75904 10.173 8.3806 11.0866C8.00217 12.0002 7.90315 13.0055 8.09608 13.9755C8.289 14.9454 8.76521 15.8363 9.46447 16.5355C10.1637 17.2348 11.0546 17.711 12.0246 17.9039C12.9945 18.0969 13.9998 17.9978 14.9134 17.6194C15.8271 17.241 16.6079 16.6001 17.1574 15.7779C17.7068 14.9556 18 13.9889 18 13C17.9984 11.6744 17.4712 10.4035 16.5338 9.46619C15.5965 8.52885 14.3256 8.00156 13 8ZM13 16C12.4067 16 11.8266 15.8241 11.3333 15.4944C10.8399 15.1648 10.4554 14.6962 10.2284 14.1481C10.0013 13.5999 9.94189 12.9967 10.0576 12.4147C10.1734 11.8328 10.4591 11.2982 10.8787 10.8787C11.2982 10.4591 11.8328 10.1734 12.4147 10.0576C12.9967 9.94189 13.5999 10.0013 14.1481 10.2284C14.6962 10.4554 15.1648 10.8399 15.4944 11.3333C15.8241 11.8266 16 12.4067 16 13C15.9991 13.7954 15.6828 14.5579 15.1204 15.1204C14.5579 15.6828 13.7954 15.9991 13 16Z" fill="#011D32"/>
<path d="M24.3271 9.87499L23.2739 9.69999C23.0936 9.13789 22.8673 8.5916 22.5972 8.06669L23.2183 7.20099C23.4958 6.81607 23.6268 6.34481 23.588 5.8719C23.5491 5.399 23.3429 4.95546 23.0063 4.62099L21.3779 2.99369C21.0438 2.657 20.6006 2.45057 20.1279 2.41154C19.6552 2.37251 19.1841 2.50345 18.7993 2.78079L17.9316 3.40189C17.4065 3.13213 16.8601 2.9061 16.2979 2.72609L16.125 1.67479C16.0491 1.20647 15.8087 0.780557 15.4469 0.473582C15.0852 0.166607 14.6258 -0.00131239 14.1514 -7.53282e-06H11.8481C11.374 -0.00132683 10.915 0.166356 10.5534 0.472949C10.1918 0.779542 9.95125 1.20497 9.875 1.67289L9.7 2.72609C9.1379 2.90639 8.59162 3.13272 8.0667 3.40279L7.2015 2.78279C6.81661 2.50544 6.34547 2.37433 5.87263 2.413C5.3998 2.45167 4.95622 2.65759 4.6215 2.99379L2.9937 4.62209C2.65728 4.95632 2.45104 5.39954 2.41202 5.87216C2.373 6.34477 2.50376 6.81581 2.7808 7.20069L3.4019 8.06839C3.13293 8.59166 2.90738 9.13612 2.7275 9.69629L1.6685 9.87349C1.20162 9.95101 0.777482 10.192 0.471846 10.5533C0.16621 10.9147 -0.00102556 11.3729 4.73219e-06 11.8462V14.1543C-0.00102494 14.6275 0.166147 15.0857 0.471679 15.447C0.777211 15.8083 1.20122 16.0494 1.668 16.127L2.728 16.3052C2.90731 16.8636 3.13206 17.4065 3.4 17.9282L2.7774 18.8013C2.50159 19.1861 2.37174 19.6566 2.41112 20.1284C2.45049 20.6003 2.65652 21.0427 2.9923 21.3765L4.624 23.0088C4.95753 23.3444 5.39958 23.5503 5.87106 23.5897C6.34253 23.6292 6.81265 23.4996 7.1973 23.2241L8.0732 22.6011C8.59517 22.8689 9.13818 23.0936 9.69681 23.2729L9.874 24.33C9.95079 24.7973 10.1914 25.2219 10.5528 25.5279C10.9142 25.8339 11.3727 26.0013 11.8462 26H14.1543C14.6275 26.001 15.0857 25.8339 15.447 25.5283C15.8084 25.2228 16.0494 24.7988 16.127 24.332L16.3052 23.272C16.8636 23.0927 17.4065 22.868 17.9282 22.6001L18.8013 23.2227C19.1862 23.4985 19.6566 23.6283 20.1284 23.5889C20.6003 23.5495 21.0427 23.3435 21.3765 23.0078L23.0088 21.376C23.3443 21.0424 23.5501 20.6004 23.5896 20.1289C23.629 19.6575 23.4995 19.1874 23.2241 18.8027L22.6006 17.9263C22.8696 17.4029 23.0949 16.8583 23.2744 16.2979L24.3252 16.125C24.7935 16.0491 25.2194 15.8087 25.5264 15.4469C25.8334 15.0852 26.0013 14.6258 26 14.1514V11.8477C26.0013 11.3737 25.8336 10.9147 25.527 10.5531C25.2204 10.1916 24.795 9.95115 24.3271 9.87499ZM24 14.1514L22.3252 14.4272C22.1332 14.4589 21.9546 14.5459 21.8114 14.6776C21.6681 14.8092 21.5663 14.9799 21.5186 15.1685C21.3125 15.982 20.9902 16.7615 20.5615 17.4829C20.4626 17.6494 20.4143 17.8411 20.4222 18.0346C20.4302 18.228 20.4942 18.4151 20.6064 18.5729L21.5947 19.9616L19.9624 21.5939L18.5767 20.6057C18.4189 20.4926 18.2316 20.428 18.0376 20.42C17.8436 20.4119 17.6515 20.4606 17.4849 20.5602C16.7654 20.9879 15.9881 21.3097 15.1768 21.5158C14.9891 21.5638 14.8193 21.6652 14.6881 21.8078C14.5569 21.9504 14.4698 22.1279 14.4375 22.319L14.1543 24H11.8467L11.5649 22.3213C11.5327 22.13 11.4456 21.9523 11.3142 21.8096C11.1829 21.6669 11.0129 21.5655 10.8249 21.5176C10.0139 21.3116 9.23669 20.9899 8.5173 20.5625C8.35074 20.4634 8.15897 20.4148 7.96531 20.4227C7.77166 20.4306 7.58446 20.4946 7.4265 20.6069L6.0378 21.5952L4.4063 19.9624L5.3945 18.5762C5.50711 18.4182 5.57133 18.2308 5.57932 18.037C5.58731 17.8431 5.53873 17.6511 5.4395 17.4844C5.01169 16.7653 4.68984 15.9882 4.4839 15.1772C4.43611 14.9893 4.33476 14.8193 4.19217 14.6879C4.04957 14.5566 3.87189 14.4695 3.6807 14.4372L2 14.1543V11.8462L3.6792 11.5649C3.8704 11.5328 4.04817 11.4459 4.19086 11.3147C4.33355 11.1834 4.43501 11.0135 4.4829 10.8257C4.69015 10.0123 5.01347 9.23293 5.4429 8.51169C5.54216 8.34453 5.59058 8.15209 5.58225 7.95786C5.57392 7.76364 5.5092 7.57604 5.396 7.41799L4.4072 6.03659L6.0361 4.40819L7.4155 5.39699C7.5738 5.51005 7.76158 5.57459 7.95593 5.58274C8.15028 5.59089 8.3428 5.5423 8.51 5.44289C9.23296 5.01237 10.0144 4.68869 10.83 4.48189C11.0183 4.434 11.1885 4.33231 11.3199 4.18925C11.4513 4.04618 11.5382 3.86794 11.57 3.67629L11.8481 1.99999H14.1514L14.4272 3.67479C14.4589 3.86672 14.5458 4.04525 14.6774 4.18852C14.8089 4.33178 14.9795 4.43356 15.168 4.48139C15.9836 4.68813 16.765 5.01164 17.488 5.44189C17.6552 5.54108 17.8476 5.58951 18.0418 5.58127C18.2359 5.57303 18.4235 5.50848 18.5817 5.39549L19.9631 4.40719L21.5925 6.03559L20.6032 7.41459C20.4898 7.57274 20.425 7.76052 20.4166 7.95495C20.4083 8.14938 20.4568 8.34202 20.5563 8.50929C20.987 9.23223 21.3108 10.0136 21.5178 10.8293C21.5657 11.0176 21.6674 11.1878 21.8105 11.3192C21.9535 11.4506 22.1318 11.5375 22.3234 11.5693L24 11.8477V14.1514Z" fill="#011D32"/>
</g>
<defs>
<clipPath id="clip0_1_657">
<rect width="26" height="26" fill="white"/>
</clipPath>
</defs>
</svg>
